<svg xmlns="http://www.w3.org/2000/svg" width="12" height="12" viewBox="0 0 12 12">
  <defs>
    <style>
      .cls-1 {
        fill: #231f20;
      }
    </style>
  </defs>
  <g id="Layer_2" data-name="Layer 2">
    <g id="Layer_1-2" data-name="Layer 1">
      <path class="cls-1" d="M10.5,7.88v3A1.12,1.12,0,0,1,9.38,12H1.12A1.12,1.12,0,0,1,0,10.88V2.62A1.12,1.12,0,0,1,1.12,1.5H4.88a.38.38,0,0,1,.37.38v.74A.38.38,0,0,1,4.88,3H1.5v7.5H9V7.88a.38.38,0,0,1,.38-.38h.74A.38.38,0,0,1,10.5,7.88ZM12,.56v3A.56.56,0,0,1,11,4l-.84-.84L4.49,8.84a.65.65,0,0,1-.4.16.62.62,0,0,1-.39-.16l-.54-.53A.67.67,0,0,1,3,7.91a.65.65,0,0,1,.16-.4L8.88,1.8,8,1a.56.56,0,0,1,.4-1h3A.56.56,0,0,1,12,.56Z"/>
    </g>
  </g>
</svg>
