<svg width="12" height="12" viewBox="0 0 12 12" fill="none" xmlns="http://www.w3.org/2000/svg">
<path d="M10.5 7.87997V10.88C10.5 11.177 10.382 11.4619 10.172 11.6719C9.96192 11.882 9.67704 12 9.38 12H1.12C0.822958 12 0.538081 11.882 0.32804 11.6719C0.118 11.4619 0 11.177 0 10.88L0 2.61997C0 2.32293 0.118 2.03805 0.32804 1.82801C0.538081 1.61797 0.822958 1.49997 1.12 1.49997H4.88C4.97904 1.50258 5.07314 1.54376 5.14226 1.61475C5.21137 1.68573 5.25003 1.7809 5.25 1.87997V2.61997C5.25003 2.71904 5.21137 2.81421 5.14226 2.8852C5.07314 2.95618 4.97904 2.99736 4.88 2.99997H1.5V10.5H9V7.87997C9 7.77919 9.04004 7.68253 9.1113 7.61127C9.18256 7.54001 9.27922 7.49997 9.38 7.49997H10.12C10.2208 7.49997 10.3174 7.54001 10.3887 7.61127C10.46 7.68253 10.5 7.77919 10.5 7.87997ZM12 0.559971V3.55997C12.0243 3.68472 12.0055 3.81403 11.9466 3.92665C11.8877 4.03928 11.7922 4.12851 11.6759 4.1797C11.5595 4.23089 11.4293 4.24098 11.3064 4.20832C11.1836 4.17565 11.0755 4.10218 11 3.99997L10.16 3.15997L4.49 8.83997C4.37873 8.93722 4.23765 8.99366 4.09 8.99997C3.9453 8.99383 3.80732 8.93722 3.7 8.83997L3.16 8.30997C3.06409 8.19789 3.00784 8.05728 3 7.90997C3.00631 7.76233 3.06275 7.62124 3.16 7.50997L8.88 1.79997L8 0.999971C7.90371 0.925489 7.83432 0.82166 7.80232 0.704206C7.77033 0.586753 7.77748 0.462073 7.82269 0.349046C7.8679 0.23602 7.94871 0.140804 8.05288 0.0778164C8.15705 0.014829 8.27891 -0.0124989 8.4 -2.89211e-05H11.4C11.4768 -0.00553138 11.554 0.00487698 11.6266 0.0305453C11.6992 0.0562137 11.7658 0.09659 11.8221 0.14915C11.8784 0.201709 11.9233 0.265322 11.9539 0.33601C11.9845 0.406697 12.0002 0.48294 12 0.559971Z" fill="#1D3557"/>
</svg>
